<svg width="105" height="46" viewBox="0 0 105 46" fill="none" xmlns="http://www.w3.org/2000/svg">
<path d="M0 22.6256C0 10.1345 23.5044 0 52.5 0C81.4956 0 105 10.1267 105 22.6256C105 35.1167 81.4956 45.2511 52.5 45.2511C23.5044 45.2511 0 35.1167 0 22.6256Z" fill="#BF2026"/>
<path d="M1.49316 22.6256C1.49316 11.0756 24.3287 1.71118 52.4999 1.71118C80.671 1.71118 103.507 11.0756 103.507 22.6256C103.507 34.1756 80.671 43.5401 52.4999 43.5401C24.3287 43.5401 1.49316 34.1756 1.49316 22.6256Z" fill="white"/>
<path d="M3.30566 22.6255C3.30566 11.9621 25.3323 3.31323 52.5001 3.31323C79.6679 3.31323 101.695 11.9621 101.695 22.6255C101.695 33.2966 79.6679 41.9377 52.5001 41.9377C25.3323 41.9377 3.30566 33.2966 3.30566 22.6255Z" fill="#BF2026"/>
<path d="M28.5287 11.4568C29.742 14.319 29.4542 17.959 27.3153 20.2457C26.172 21.529 24.4609 22.6723 22.672 22.5323C20.8831 22.5323 19.6698 21.459 18.4564 20.2457C17.0253 23.5357 17.1731 27.6812 18.0287 31.2512C17.3131 31.9668 16.2398 32.7523 15.0965 32.5346C14.3809 31.1034 14.4509 29.3923 14.1709 27.7434C13.6731 20.8134 15.602 13.8057 20.8131 10.0179C22.1742 9.09232 24.1031 8.51678 25.8142 9.16233C27.0276 9.45789 27.8831 10.4612 28.5287 11.4568Z" fill="white"/>
<path d="M63.1168 12.1021C64.1202 17.461 60.4024 21.9644 57.968 26.1099C57.828 26.8955 58.1857 27.611 58.5435 28.1088C58.7613 28.3188 59.2591 28.6766 59.5468 28.2488C62.1524 25.6666 61.0635 21.7155 61.468 21.3266C62.2069 20.3544 63.8246 21.5755 64.9368 21.7388C67.1768 22.0733 67.9702 19.6466 69.4169 21.8166C68.4135 23.6055 66.8424 26.0321 67.9857 28.031C68.4835 28.5288 69.3468 28.4588 69.9146 28.101C70.7002 27.6033 71.5557 26.8877 71.9913 26.0244C71.2057 20.7355 73.0646 14.8788 77.2802 11.9466C78.1746 11.4566 79.1391 11.581 79.7302 12.1721C81.3713 14.101 80.1424 17.1655 79.2791 19.2422C77.918 21.8166 76.3468 23.9633 74.8457 26.3199C75.1335 27.2533 75.4913 28.2488 76.4169 28.8244C76.9146 29.0344 78.0735 28.9177 78.5013 28.6999C81.1768 27.2222 82.3668 22.4855 83.7202 19.3433C82.8257 19.3433 82.3513 19.421 81.8068 19.3433C81.2002 19.2422 80.5468 19.211 80.4146 18.9621C80.9435 17.6321 80.9591 16.8933 81.208 16.8466C82.2502 17.2277 83.7824 17.2277 84.5213 17.1499C85.1668 16.0766 85.4235 15.0266 85.8513 13.8133C86.6369 13.6033 87.7024 13.5566 88.4413 13.5021C88.3402 14.1633 88.138 14.801 87.6246 16.411C90.1991 15.8433 92.9213 14.311 95.7135 15.1744C95.9002 15.5166 95.3557 16.6055 95.0679 17.2433C94.7491 17.3755 95.558 16.9477 92.6413 17.1733C90.7124 17.3133 88.4646 18.6588 86.6057 19.1644C85.6024 21.9488 83.9224 24.251 83.9224 27.3933C84.148 28.2333 84.498 28.5366 85.2057 28.8944C86.0613 29.2522 87.0646 28.8244 87.9202 28.6066C87.8891 29.0732 87.9902 29.8433 87.8502 30.2477C86.4891 30.9633 84.778 31.1033 83.4169 30.3877C82.7013 30.1699 82.3435 29.6021 81.8457 29.1044C79.7768 30.4655 76.6268 31.6788 74.2702 30.1077C73.4846 29.6799 72.7068 28.4977 72.7068 28.4977C71.4235 29.641 69.6969 30.6133 67.838 30.3255C66.9824 30.1077 66.1191 29.5399 65.8391 28.6144C65.1235 26.8255 65.9791 25.1144 66.4146 23.4655C65.7691 23.1777 64.8435 23.3255 64.1279 23.3955C63.4124 26.1099 62.7668 29.8977 59.2668 30.3955C57.8357 30.6133 57.0502 29.5399 56.1246 28.6066C54.5535 29.6799 52.6946 30.8233 50.6957 30.1077C48.1213 28.2488 50.338 24.8888 50.6257 22.4621C50.338 22.1744 49.8402 22.2444 49.5524 22.3921C48.5491 23.5355 48.4091 25.3944 47.6235 26.8255C46.9779 28.5366 45.4768 29.9677 43.6957 30.3255C42.3268 30.831 40.7013 29.501 40.398 29.5166C40.1024 29.5321 39.3868 30.1233 38.6168 30.1777C36.828 30.6055 35.1868 29.5321 34.3313 28.3888C32.7602 29.6721 30.8313 30.8155 28.6846 30.3177C28.0391 30.0999 27.4013 29.9599 26.8957 29.4621C25.6824 29.5321 23.8935 31.321 23.178 29.5321C22.8202 27.6733 25.6357 29.1355 25.418 26.9344C25.2935 23.6444 27.2302 20.891 29.7269 20.1755C30.3646 20.0744 31.1813 20.1677 31.6791 20.5255C32.5346 21.241 32.6046 22.5477 32.3246 23.621C31.7568 25.4799 30.4657 26.8177 29.1046 28.101C29.1046 28.241 29.1902 28.4666 29.4624 28.4588C33.678 27.6033 34.3391 22.781 35.7702 19.5688C34.728 19.7944 33.0713 19.8488 32.3946 18.8144C32.5268 18.4721 32.7913 17.3599 33.0402 17.0177C33.2035 17.3288 33.888 17.6788 36.4313 17.2433C36.7657 16.6288 37.7613 14.0777 38.2902 12.7321C39.0368 12.4677 39.7913 12.5533 40.9657 12.6621C40.7091 13.4477 40.1724 14.7466 39.768 15.8666C41.5024 15.1277 47.9035 12.911 50.0969 14.6455C49.9413 15.1044 48.9768 16.3566 48.6657 16.8932C48.4402 16.971 47.9035 16.3099 46.2702 16.3566C43.6724 16.4344 40.3824 17.4299 38.9513 18.5499C38.018 21.3344 36.618 23.7455 36.478 26.9655C36.6024 27.6266 36.9757 28.2255 37.5513 28.3655C38.1113 28.4433 38.6091 28.3188 38.9668 27.821C37.8235 25.6744 38.7569 22.9599 40.1802 21.2488C40.9657 20.5333 41.8913 19.5299 43.1824 19.6077C43.828 19.6077 44.3957 19.8955 44.8935 20.3933C45.8269 21.6066 45.6091 23.1077 45.0335 24.3988C44.318 25.6822 43.5324 27.1132 42.3891 28.0466C42.2491 28.4044 42.6068 28.4744 42.8168 28.6222C44.8857 28.5522 45.6013 26.4755 46.3168 24.9744L47.958 20.401C48.2224 19.8644 49.0469 20.1677 49.778 20.1444C49.4746 21.0855 53.0368 19.1877 53.5346 21.1166C53.3946 23.4733 52.1813 25.6199 52.1813 27.9766C52.3913 28.5444 53.1068 28.3344 53.4646 28.1166C54.0402 27.6888 54.8957 27.1133 55.1757 26.4755C54.1802 21.1866 56.1091 16.3255 58.8235 12.3977C59.4691 11.6822 60.3246 11.1066 61.2502 10.8966C62.0435 10.8888 62.8368 11.3166 63.1168 12.1021Z" fill="white"/>
<path d="M26.1724 12.5299C27.028 14.6766 26.3124 17.391 24.8113 19.0321C24.0957 19.7477 23.3802 20.2455 22.3846 20.3155C20.9535 20.2455 19.9035 18.9544 19.6702 17.811C19.5224 15.5321 20.8835 13.3077 22.6024 12.0944C23.3491 11.7133 24.1113 11.0366 25.1457 11.4644C25.6046 11.7599 25.8846 12.0166 26.1724 12.5299Z" fill="#BF2026"/>
<path d="M61.4132 14.5523C60.8377 17.9823 59.4066 20.7512 57.5477 23.3956C57.2599 19.7479 58.761 16.2478 60.6899 13.4634C61.2577 12.8178 61.561 13.2534 61.4132 14.5523Z" fill="#BF2026"/>
<path d="M78.4857 14.9645C78.0112 17.4379 76.5568 20.899 74.4801 23.2557C74.0523 19.6857 75.4368 16.9323 77.4746 14.5601C78.3146 13.6112 78.649 14.249 78.4857 14.9645Z" fill="#BF2026"/>
<path d="M71.4076 16.6755C71.6487 17.3055 71.2676 18.2466 70.692 18.8221C70.1165 19.3199 69.4787 19.7477 68.6931 19.4677C68.1176 19.1099 67.8998 18.5032 68.1176 17.7488C68.4054 16.9632 69.0431 16.2477 69.8365 16.0299C70.482 15.8899 71.1276 16.1077 71.4076 16.6755Z" fill="white"/>
<path d="M43.5398 22.2522C43.5398 23.971 42.2565 25.0366 41.2531 26.1099C40.7554 24.7488 41.4476 23.1622 41.9687 22.2522C42.2798 21.7388 43.462 21.1788 43.5398 22.2522Z" fill="#BF2026"/>
<path d="M29.9598 23.971C29.3842 24.9043 28.8164 25.8299 27.8131 26.3977C27.5953 24.6788 28.3887 23.0143 29.742 22.2288C30.7998 21.7621 30.0687 23.5977 29.9598 23.971Z" fill="#BF2026"/>
</svg>
